<svg width="30" height="30" viewBox="0 0 30 30" fill="none" xmlns="http://www.w3.org/2000/svg">
    <path d="M10.9723 20.2916L12.4145 18.7413C12.0558 18.3625 11.7156 17.9815 11.3939 17.5983C11.0722 17.2152 10.759 16.8086 10.4544 16.3785L9.7172 17.6L10.9723 20.2916ZM14.1363 17.6654L17.7657 15.9534C17.7546 15.2044 17.6274 14.36 17.3842 13.4202C17.1409 12.4803 16.8101 11.5618 16.3918 10.6646C15.6945 9.16922 14.7889 7.86855 13.675 6.76254C12.5611 5.65653 11.4261 4.93747 10.27 4.60535C9.78122 5.70448 9.60106 7.04008 9.72946 8.61213C9.85786 10.1842 10.2707 11.7179 10.968 13.2132C11.3864 14.1104 11.8774 14.9542 12.441 15.7447C13.0047 16.5351 13.5698 17.1754 14.1363 17.6654ZM14.1313 12.9279C13.64 13.157 13.132 13.1761 12.6074 12.9852C12.0827 12.7942 11.7058 12.4531 11.4767 11.9617C11.2476 11.4704 11.2299 10.9585 11.4238 10.426C11.6176 9.89351 11.9601 9.51271 12.4515 9.2836C12.9428 9.0545 13.4508 9.03542 13.9754 9.22639C14.5001 9.41735 14.877 9.75849 15.1061 10.2498C15.3352 10.7411 15.3528 11.253 15.159 11.7855C14.9652 12.318 14.6227 12.6988 14.1313 12.9279ZM21.8348 15.2263L20.5797 12.5347L19.1701 12.3143C19.3038 12.8241 19.4101 13.3239 19.489 13.8138C19.5678 14.3036 19.6371 14.8077 19.6968 15.3261L21.8348 15.2263ZM9.17065 2.28972C11.174 2.68189 12.9512 3.53713 14.5022 4.85543C16.0531 6.17374 17.3466 7.94371 18.3826 10.1653L20.8793 10.542C21.2154 10.5934 21.5151 10.7202 21.7784 10.9225C22.0418 11.1247 22.2432 11.3754 22.3827 11.6745L24.8929 17.0577L19.5467 17.3466L14.0673 19.9016L10.4095 23.8114L7.89076 18.4517C7.7513 18.1526 7.69016 17.8333 7.70735 17.4937C7.72454 17.1541 7.82146 16.839 7.99811 16.5486L9.31446 14.3939C8.27849 12.1722 7.7487 10.0462 7.7251 8.01563C7.70149 5.98509 8.18334 4.07646 9.17065 2.28972ZM15.9735 23.9476C15.6249 23.1999 15.5906 22.4292 15.8706 21.6354C16.1506 20.8417 16.6645 20.2705 17.4121 19.9218C18.1598 19.5732 18.9277 19.5467 19.7157 19.8424C20.5038 20.1381 21.0721 20.6598 21.4208 21.4075C21.6698 21.9415 21.7685 22.7179 21.717 23.7367C21.6654 24.7555 21.4557 26.1114 21.0878 27.8044C19.5545 26.998 18.381 26.2871 17.5674 25.6717C16.7538 25.0563 16.2225 24.4816 15.9735 23.9476ZM17.7764 23.0873C17.8761 23.3009 18.1049 23.5616 18.4629 23.8693C18.8209 24.1769 19.2 24.4391 19.6 24.6556C19.6913 24.2099 19.7381 23.7525 19.7403 23.2833C19.7426 22.8142 19.6939 22.4728 19.5943 22.2591C19.4748 22.0028 19.2848 21.8183 19.0242 21.7058C18.7637 21.5932 18.5052 21.5967 18.2489 21.7162C17.9925 21.8358 17.8198 22.0301 17.7308 22.2992C17.6417 22.5683 17.6569 22.831 17.7764 23.0873Z" 
    fill="#26329A"/>
</svg>